<?xml version="1.0" encoding="utf-8"?>
<!-- Generator: Adobe Illustrator 25.4.1, SVG Export Plug-In . SVG Version: 6.00 Build 0)  -->
<svg version="1.1" id="Layer_1" xmlns="http://www.w3.org/2000/svg" xmlns:xlink="http://www.w3.org/1999/xlink" x="0px" y="0px"
	 viewBox="0 0 80.1 80" style="enable-background:new 0 0 80.1 80;" xml:space="preserve">
<style type="text/css">
	.st0{fill:#907835;}
</style>
<path class="st0" d="M80.1,40c0.2,20.8-16.3,40-40,40C17.7,80,0.1,62.4,0,40.1C-0.1,17.4,17.9,0.1,39.6,0C63-0.2,80.2,18.8,80.1,40
	 M76.1,42.6c0,0,0.7-0.9-4.9-0.9c-2.4,0-4.9,0.2-7.3,0.2c-1.8,0-2.7-0.8-3-2.6c-0.3-2,0.2-3.9,1-5.6c1.9-4.1,3.5-8.3,4.4-12.7
	c0.6-3,0.2-5.7-1.9-8.1c-2.1-2.3-4.7-3.6-7.7-4c-1.3-0.2-2.6-0.6-4.1,0c-0.3,5.4-0.7,10.8-2,16c-1.3,5.3-3,10.4-4.5,15.7
	c-2-0.3-4-0.6-5.9-0.7c-4.4-0.2-8.5,0.7-12.5,2.3c-6.3,2.6-12.9,4.5-19.7,5.7c-1.3,0.2-2.6,0.4-3.9,0.6c0,0.1,0,0.2,0,0.4
	C4.7,49,5.3,49.2,6,49.3c4.6,0.7,10.4-0.8,15.1-0.9c2.5-0.1,12.5,0.3,15.7,0.7c0.2,0.1,1.6,0.1,1.8,0.9c0.3,0.9-0.6,1.4-1.2,1.8
	c-2.4,1.6-4.9,3.2-7.3,4.7c-0.7,0.4-1.4,0.8-1.7,1.7c0.8,0.8,1.7,0.7,2.5,0.6c2.8-0.4,5.7-0.7,8.4-1.4c3.5-0.9,7.1-1.4,10.8-1.4
	c3.1,0.1,7.7-2.3,10.8-4.4c5-3.3,8.9-4.5,13.6-7.5C75.7,43.1,76.1,42.6,76.1,42.6"/>
</svg>
